<mxfile host="app.diagrams.net" modified="2022-03-03T09:44:02.183Z" agent="5.0 (Windows NT 10.0; Win64; x64) AppleWebKit/537.36 (KHTML, like Gecko) Chrome/98.0.4758.102 Safari/537.36 OPR/84.0.4316.21" etag="fQxhGNyDi_7Wtemxt54s" version="16.5.3" type="github">
  <diagram id="H7skH_uxNTBNEzFsWEwE" name="Page-1">
    <mxGraphModel dx="984" dy="561" grid="1" gridSize="10" guides="1" tooltips="1" connect="1" arrows="1" fold="1" page="1" pageScale="1" pageWidth="827" pageHeight="1169" math="0" shadow="0">
      <root>
        <mxCell id="0" />
        <mxCell id="1" parent="0" />
        <mxCell id="htZBh3Qq9oiqBA05xZiS-46" style="edgeStyle=orthogonalEdgeStyle;rounded=0;orthogonalLoop=1;jettySize=auto;html=1;entryX=0.5;entryY=0;entryDx=0;entryDy=0;endArrow=diamond;endFill=1;" parent="1" source="htZBh3Qq9oiqBA05xZiS-1" target="htZBh3Qq9oiqBA05xZiS-45" edge="1">
          <mxGeometry relative="1" as="geometry" />
        </mxCell>
        <mxCell id="htZBh3Qq9oiqBA05xZiS-1" value="UnviersitÃ " style="whiteSpace=wrap;html=1;fillColor=#d5e8d4;strokeColor=#82b366;" parent="1" vertex="1">
          <mxGeometry x="941" y="50" width="120" height="60" as="geometry" />
        </mxCell>
        <mxCell id="htZBh3Qq9oiqBA05xZiS-37" style="edgeStyle=orthogonalEdgeStyle;rounded=0;orthogonalLoop=1;jettySize=auto;html=1;endArrow=none;endFill=0;" parent="1" source="htZBh3Qq9oiqBA05xZiS-4" target="htZBh3Qq9oiqBA05xZiS-9" edge="1">
          <mxGeometry relative="1" as="geometry" />
        </mxCell>
        <mxCell id="htZBh3Qq9oiqBA05xZiS-39" style="edgeStyle=orthogonalEdgeStyle;rounded=0;orthogonalLoop=1;jettySize=auto;html=1;endArrow=none;endFill=0;" parent="1" source="htZBh3Qq9oiqBA05xZiS-4" target="htZBh3Qq9oiqBA05xZiS-13" edge="1">
          <mxGeometry relative="1" as="geometry" />
        </mxCell>
        <mxCell id="htZBh3Qq9oiqBA05xZiS-4" value="Studente" style="rounded=0;whiteSpace=wrap;html=1;fillColor=#d5e8d4;strokeColor=#82b366;" parent="1" vertex="1">
          <mxGeometry x="941" y="620" width="120" height="60" as="geometry" />
        </mxCell>
        <mxCell id="htZBh3Qq9oiqBA05xZiS-31" style="edgeStyle=orthogonalEdgeStyle;rounded=0;orthogonalLoop=1;jettySize=auto;html=1;entryX=0.75;entryY=0;entryDx=0;entryDy=0;endArrow=none;endFill=0;" parent="1" source="htZBh3Qq9oiqBA05xZiS-5" target="htZBh3Qq9oiqBA05xZiS-8" edge="1">
          <mxGeometry relative="1" as="geometry">
            <Array as="points">
              <mxPoint x="1370" y="350" />
              <mxPoint x="1051" y="350" />
              <mxPoint x="1051" y="400" />
            </Array>
          </mxGeometry>
        </mxCell>
        <mxCell id="HuHh-bClSopEB2dZjoSl-1" style="edgeStyle=orthogonalEdgeStyle;rounded=0;orthogonalLoop=1;jettySize=auto;html=1;entryX=0.75;entryY=0;entryDx=0;entryDy=0;endArrow=none;endFill=0;startArrow=none;" parent="1" target="htZBh3Qq9oiqBA05xZiS-8" edge="1">
          <mxGeometry relative="1" as="geometry">
            <mxPoint x="1191" y="280" as="targetPoint" />
            <mxPoint x="1031" y="400" as="sourcePoint" />
          </mxGeometry>
        </mxCell>
        <mxCell id="htZBh3Qq9oiqBA05xZiS-5" value="Docente" style="rounded=0;whiteSpace=wrap;html=1;fillColor=#d5e8d4;strokeColor=#82b366;" parent="1" vertex="1">
          <mxGeometry x="1360" y="280" width="120" height="60" as="geometry" />
        </mxCell>
        <mxCell id="htZBh3Qq9oiqBA05xZiS-49" style="edgeStyle=orthogonalEdgeStyle;rounded=0;orthogonalLoop=1;jettySize=auto;html=1;entryX=1;entryY=0.75;entryDx=0;entryDy=0;endArrow=none;endFill=0;" parent="1" source="htZBh3Qq9oiqBA05xZiS-6" target="htZBh3Qq9oiqBA05xZiS-1" edge="1">
          <mxGeometry relative="1" as="geometry">
            <Array as="points">
              <mxPoint x="1200" y="200" />
              <mxPoint x="1200" y="100" />
              <mxPoint x="1061" y="100" />
            </Array>
          </mxGeometry>
        </mxCell>
        <mxCell id="htZBh3Qq9oiqBA05xZiS-6" value="Segreteria" style="rounded=0;whiteSpace=wrap;html=1;fillColor=#d5e8d4;strokeColor=#82b366;" parent="1" vertex="1">
          <mxGeometry x="1360" y="170" width="120" height="60" as="geometry" />
        </mxCell>
        <mxCell id="htZBh3Qq9oiqBA05xZiS-48" style="edgeStyle=orthogonalEdgeStyle;rounded=0;orthogonalLoop=1;jettySize=auto;html=1;entryX=1;entryY=0.5;entryDx=0;entryDy=0;endArrow=none;endFill=0;" parent="1" source="htZBh3Qq9oiqBA05xZiS-7" target="htZBh3Qq9oiqBA05xZiS-1" edge="1">
          <mxGeometry relative="1" as="geometry">
            <Array as="points">
              <mxPoint x="1120" y="80" />
              <mxPoint x="1120" y="80" />
            </Array>
          </mxGeometry>
        </mxCell>
        <mxCell id="htZBh3Qq9oiqBA05xZiS-7" value="Amministratore del Sito" style="rounded=0;whiteSpace=wrap;html=1;fillColor=#d5e8d4;strokeColor=#82b366;" parent="1" vertex="1">
          <mxGeometry x="1360" y="38" width="120" height="60" as="geometry" />
        </mxCell>
        <mxCell id="htZBh3Qq9oiqBA05xZiS-8" value="Corso" style="rounded=0;whiteSpace=wrap;html=1;fillColor=#d5e8d4;strokeColor=#82b366;" parent="1" vertex="1">
          <mxGeometry x="941" y="400" width="120" height="60" as="geometry" />
        </mxCell>
        <mxCell id="htZBh3Qq9oiqBA05xZiS-36" style="edgeStyle=orthogonalEdgeStyle;rounded=0;orthogonalLoop=1;jettySize=auto;html=1;entryX=0.5;entryY=1;entryDx=0;entryDy=0;endArrow=none;endFill=0;" parent="1" source="htZBh3Qq9oiqBA05xZiS-9" target="htZBh3Qq9oiqBA05xZiS-8" edge="1">
          <mxGeometry relative="1" as="geometry" />
        </mxCell>
        <mxCell id="htZBh3Qq9oiqBA05xZiS-9" value="Iscrizione" style="rounded=0;whiteSpace=wrap;html=1;fillColor=#d5e8d4;strokeColor=#82b366;" parent="1" vertex="1">
          <mxGeometry x="941" y="510" width="120" height="60" as="geometry" />
        </mxCell>
        <mxCell id="htZBh3Qq9oiqBA05xZiS-42" style="edgeStyle=orthogonalEdgeStyle;rounded=0;orthogonalLoop=1;jettySize=auto;html=1;endArrow=none;endFill=0;" parent="1" source="htZBh3Qq9oiqBA05xZiS-10" target="htZBh3Qq9oiqBA05xZiS-12" edge="1">
          <mxGeometry relative="1" as="geometry" />
        </mxCell>
        <mxCell id="htZBh3Qq9oiqBA05xZiS-43" style="edgeStyle=orthogonalEdgeStyle;rounded=0;orthogonalLoop=1;jettySize=auto;html=1;entryX=1;entryY=0.5;entryDx=0;entryDy=0;endArrow=none;endFill=0;" parent="1" source="htZBh3Qq9oiqBA05xZiS-10" target="htZBh3Qq9oiqBA05xZiS-8" edge="1">
          <mxGeometry relative="1" as="geometry" />
        </mxCell>
        <mxCell id="htZBh3Qq9oiqBA05xZiS-10" value="Esame" style="rounded=0;whiteSpace=wrap;html=1;fillColor=#d5e8d4;strokeColor=#82b366;" parent="1" vertex="1">
          <mxGeometry x="1211" y="400" width="120" height="60" as="geometry" />
        </mxCell>
        <mxCell id="htZBh3Qq9oiqBA05xZiS-12" value="Aula" style="rounded=0;whiteSpace=wrap;html=1;fillColor=#d5e8d4;strokeColor=#82b366;" parent="1" vertex="1">
          <mxGeometry x="1421" y="400" width="120" height="60" as="geometry" />
        </mxCell>
        <mxCell id="htZBh3Qq9oiqBA05xZiS-41" style="edgeStyle=orthogonalEdgeStyle;rounded=0;orthogonalLoop=1;jettySize=auto;html=1;entryX=0.5;entryY=1;entryDx=0;entryDy=0;endArrow=none;endFill=0;" parent="1" source="htZBh3Qq9oiqBA05xZiS-13" target="htZBh3Qq9oiqBA05xZiS-10" edge="1">
          <mxGeometry relative="1" as="geometry">
            <Array as="points">
              <mxPoint x="1271" y="550" />
              <mxPoint x="1271" y="550" />
            </Array>
          </mxGeometry>
        </mxCell>
        <mxCell id="htZBh3Qq9oiqBA05xZiS-13" value="Registrazione" style="rounded=0;whiteSpace=wrap;html=1;fillColor=#d5e8d4;strokeColor=#82b366;" parent="1" vertex="1">
          <mxGeometry x="1211" y="620" width="120" height="60" as="geometry" />
        </mxCell>
        <mxCell id="htZBh3Qq9oiqBA05xZiS-47" style="edgeStyle=orthogonalEdgeStyle;rounded=0;orthogonalLoop=1;jettySize=auto;html=1;entryX=0.5;entryY=0;entryDx=0;entryDy=0;endArrow=diamond;endFill=1;" parent="1" source="htZBh3Qq9oiqBA05xZiS-45" target="htZBh3Qq9oiqBA05xZiS-8" edge="1">
          <mxGeometry relative="1" as="geometry" />
        </mxCell>
        <mxCell id="htZBh3Qq9oiqBA05xZiS-45" value="Dipartimento" style="rounded=0;whiteSpace=wrap;html=1;fillColor=#d5e8d4;strokeColor=#82b366;" parent="1" vertex="1">
          <mxGeometry x="941" y="170" width="120" height="60" as="geometry" />
        </mxCell>
        <mxCell id="HuHh-bClSopEB2dZjoSl-2" value="docenza" style="text;html=1;align=center;verticalAlign=middle;resizable=0;points=[];autosize=1;strokeColor=none;fillColor=none;" parent="1" vertex="1">
          <mxGeometry x="1146" y="330" width="60" height="20" as="geometry" />
        </mxCell>
        <mxCell id="HuHh-bClSopEB2dZjoSl-3" value="codocenza" style="text;html=1;align=center;verticalAlign=middle;resizable=0;points=[];autosize=1;strokeColor=none;fillColor=none;" parent="1" vertex="1">
          <mxGeometry x="1141" y="290" width="70" height="20" as="geometry" />
        </mxCell>
        <mxCell id="HuHh-bClSopEB2dZjoSl-6" value="1" style="text;html=1;align=center;verticalAlign=middle;resizable=0;points=[];autosize=1;strokeColor=none;fillColor=none;" parent="1" vertex="1">
          <mxGeometry x="1061" y="60" width="20" height="20" as="geometry" />
        </mxCell>
        <mxCell id="HuHh-bClSopEB2dZjoSl-7" value="1" style="text;html=1;align=center;verticalAlign=middle;resizable=0;points=[];autosize=1;strokeColor=none;fillColor=none;" parent="1" vertex="1">
          <mxGeometry x="1340" y="58" width="20" height="20" as="geometry" />
        </mxCell>
        <mxCell id="HuHh-bClSopEB2dZjoSl-8" value="1" style="text;html=1;align=center;verticalAlign=middle;resizable=0;points=[];autosize=1;strokeColor=none;fillColor=none;" parent="1" vertex="1">
          <mxGeometry x="1340" y="184" width="20" height="20" as="geometry" />
        </mxCell>
        <mxCell id="HuHh-bClSopEB2dZjoSl-9" value="1" style="text;html=1;align=center;verticalAlign=middle;resizable=0;points=[];autosize=1;strokeColor=none;fillColor=none;" parent="1" vertex="1">
          <mxGeometry x="1061" y="80" width="20" height="20" as="geometry" />
        </mxCell>
        <mxCell id="HuHh-bClSopEB2dZjoSl-10" value="1" style="text;html=1;align=center;verticalAlign=middle;resizable=0;points=[];autosize=1;strokeColor=none;fillColor=none;" parent="1" vertex="1">
          <mxGeometry x="976" y="110" width="20" height="20" as="geometry" />
        </mxCell>
        <mxCell id="HuHh-bClSopEB2dZjoSl-11" value="1..*" style="text;html=1;align=center;verticalAlign=middle;resizable=0;points=[];autosize=1;strokeColor=none;fillColor=none;" parent="1" vertex="1">
          <mxGeometry x="971" y="150" width="30" height="20" as="geometry" />
        </mxCell>
        <mxCell id="HuHh-bClSopEB2dZjoSl-12" value="1" style="text;html=1;align=center;verticalAlign=middle;resizable=0;points=[];autosize=1;strokeColor=none;fillColor=none;" parent="1" vertex="1">
          <mxGeometry x="976" y="230" width="20" height="20" as="geometry" />
        </mxCell>
        <mxCell id="HuHh-bClSopEB2dZjoSl-13" value="1..*" style="text;html=1;align=center;verticalAlign=middle;resizable=0;points=[];autosize=1;strokeColor=none;fillColor=none;" parent="1" vertex="1">
          <mxGeometry x="971" y="380" width="30" height="20" as="geometry" />
        </mxCell>
        <mxCell id="HuHh-bClSopEB2dZjoSl-18" value="1" style="text;html=1;align=center;verticalAlign=middle;resizable=0;points=[];autosize=1;strokeColor=none;fillColor=none;" parent="1" vertex="1">
          <mxGeometry x="981" y="460" width="20" height="20" as="geometry" />
        </mxCell>
        <mxCell id="HuHh-bClSopEB2dZjoSl-19" value="1..*" style="text;html=1;align=center;verticalAlign=middle;resizable=0;points=[];autosize=1;strokeColor=none;fillColor=none;" parent="1" vertex="1">
          <mxGeometry x="971" y="490" width="30" height="20" as="geometry" />
        </mxCell>
        <mxCell id="HuHh-bClSopEB2dZjoSl-20" value="*" style="text;html=1;align=center;verticalAlign=middle;resizable=0;points=[];autosize=1;strokeColor=none;fillColor=none;" parent="1" vertex="1">
          <mxGeometry x="981" y="570" width="20" height="20" as="geometry" />
        </mxCell>
        <mxCell id="HuHh-bClSopEB2dZjoSl-21" value="1" style="text;html=1;align=center;verticalAlign=middle;resizable=0;points=[];autosize=1;strokeColor=none;fillColor=none;" parent="1" vertex="1">
          <mxGeometry x="981" y="600" width="20" height="20" as="geometry" />
        </mxCell>
        <mxCell id="HuHh-bClSopEB2dZjoSl-23" value="1" style="text;html=1;align=center;verticalAlign=middle;resizable=0;points=[];autosize=1;strokeColor=none;fillColor=none;" parent="1" vertex="1">
          <mxGeometry x="1061" y="630" width="20" height="20" as="geometry" />
        </mxCell>
        <mxCell id="HuHh-bClSopEB2dZjoSl-24" value="*" style="text;html=1;align=center;verticalAlign=middle;resizable=0;points=[];autosize=1;strokeColor=none;fillColor=none;" parent="1" vertex="1">
          <mxGeometry x="1191" y="630" width="20" height="20" as="geometry" />
        </mxCell>
        <mxCell id="HuHh-bClSopEB2dZjoSl-25" value="*" style="text;html=1;align=center;verticalAlign=middle;resizable=0;points=[];autosize=1;strokeColor=none;fillColor=none;" parent="1" vertex="1">
          <mxGeometry x="1271" y="600" width="20" height="20" as="geometry" />
        </mxCell>
        <mxCell id="HuHh-bClSopEB2dZjoSl-26" value="1" style="text;html=1;align=center;verticalAlign=middle;resizable=0;points=[];autosize=1;strokeColor=none;fillColor=none;" parent="1" vertex="1">
          <mxGeometry x="1271" y="460" width="20" height="20" as="geometry" />
        </mxCell>
        <mxCell id="HuHh-bClSopEB2dZjoSl-27" value="*" style="text;html=1;align=center;verticalAlign=middle;resizable=0;points=[];autosize=1;strokeColor=none;fillColor=none;" parent="1" vertex="1">
          <mxGeometry x="1331" y="410" width="20" height="20" as="geometry" />
        </mxCell>
        <mxCell id="HuHh-bClSopEB2dZjoSl-29" value="1" style="text;html=1;align=center;verticalAlign=middle;resizable=0;points=[];autosize=1;strokeColor=none;fillColor=none;" parent="1" vertex="1">
          <mxGeometry x="1401" y="410" width="20" height="20" as="geometry" />
        </mxCell>
        <mxCell id="HuHh-bClSopEB2dZjoSl-30" value="1" style="text;html=1;align=center;verticalAlign=middle;resizable=0;points=[];autosize=1;strokeColor=none;fillColor=none;" parent="1" vertex="1">
          <mxGeometry x="1061" y="410" width="20" height="20" as="geometry" />
        </mxCell>
        <mxCell id="HuHh-bClSopEB2dZjoSl-31" value="1" style="text;html=1;align=center;verticalAlign=middle;resizable=0;points=[];autosize=1;strokeColor=none;fillColor=none;" parent="1" vertex="1">
          <mxGeometry x="1191" y="410" width="20" height="20" as="geometry" />
        </mxCell>
        <mxCell id="HuHh-bClSopEB2dZjoSl-32" value="1" style="text;html=1;align=center;verticalAlign=middle;resizable=0;points=[];autosize=1;strokeColor=none;fillColor=none;" parent="1" vertex="1">
          <mxGeometry x="1340" y="330" width="20" height="20" as="geometry" />
        </mxCell>
        <mxCell id="HuHh-bClSopEB2dZjoSl-33" value="0..1" style="text;html=1;align=center;verticalAlign=middle;resizable=0;points=[];autosize=1;strokeColor=none;fillColor=none;" parent="1" vertex="1">
          <mxGeometry x="1320" y="290" width="40" height="20" as="geometry" />
        </mxCell>
        <mxCell id="HuHh-bClSopEB2dZjoSl-34" value="*" style="text;html=1;align=center;verticalAlign=middle;resizable=0;points=[];autosize=1;strokeColor=none;fillColor=none;" parent="1" vertex="1">
          <mxGeometry x="1051" y="380" width="20" height="20" as="geometry" />
        </mxCell>
        <mxCell id="HuHh-bClSopEB2dZjoSl-36" value="" style="edgeStyle=orthogonalEdgeStyle;rounded=0;orthogonalLoop=1;jettySize=auto;html=1;entryX=0.75;entryY=0;entryDx=0;entryDy=0;endArrow=none;endFill=0;" parent="1" source="htZBh3Qq9oiqBA05xZiS-5" target="htZBh3Qq9oiqBA05xZiS-8" edge="1">
          <mxGeometry relative="1" as="geometry">
            <mxPoint x="1036" y="380" as="targetPoint" />
            <mxPoint x="1211" y="280" as="sourcePoint" />
          </mxGeometry>
        </mxCell>
        <mxCell id="HuHh-bClSopEB2dZjoSl-37" value="*" style="text;html=1;align=center;verticalAlign=middle;resizable=0;points=[];autosize=1;strokeColor=none;fillColor=none;" parent="1" vertex="1">
          <mxGeometry x="1011" y="380" width="20" height="20" as="geometry" />
        </mxCell>
        <mxCell id="KtQMih75mMSEq9B0olER-35" style="edgeStyle=orthogonalEdgeStyle;rounded=0;orthogonalLoop=1;jettySize=auto;html=1;entryX=0.5;entryY=0;entryDx=0;entryDy=0;endArrow=diamond;endFill=1;" parent="1" source="KtQMih75mMSEq9B0olER-1" target="KtQMih75mMSEq9B0olER-6" edge="1">
          <mxGeometry relative="1" as="geometry" />
        </mxCell>
        <mxCell id="KtQMih75mMSEq9B0olER-36" value="1" style="edgeLabel;html=1;align=center;verticalAlign=middle;resizable=0;points=[];" parent="KtQMih75mMSEq9B0olER-35" vertex="1" connectable="0">
          <mxGeometry x="-0.7379" y="-1" relative="1" as="geometry">
            <mxPoint x="-9" as="offset" />
          </mxGeometry>
        </mxCell>
        <mxCell id="KtQMih75mMSEq9B0olER-37" value="1..*" style="edgeLabel;html=1;align=center;verticalAlign=middle;resizable=0;points=[];" parent="KtQMih75mMSEq9B0olER-35" vertex="1" connectable="0">
          <mxGeometry x="0.7111" y="-1" relative="1" as="geometry">
            <mxPoint x="-19" as="offset" />
          </mxGeometry>
        </mxCell>
        <mxCell id="KtQMih75mMSEq9B0olER-1" value="UnversitÃ " style="swimlane;fontStyle=0;childLayout=stackLayout;horizontal=1;startSize=26;fillColor=none;horizontalStack=0;resizeParent=1;resizeParentMax=0;resizeLast=0;collapsible=1;marginBottom=0;" parent="1" vertex="1">
          <mxGeometry x="28" y="40" width="140" height="104" as="geometry">
            <mxRectangle x="70" y="120" width="90" height="26" as="alternateBounds" />
          </mxGeometry>
        </mxCell>
        <mxCell id="KtQMih75mMSEq9B0olER-2" value="+ Nome: String" style="text;strokeColor=none;fillColor=none;align=left;verticalAlign=top;spacingLeft=4;spacingRight=4;overflow=hidden;rotatable=0;points=[[0,0.5],[1,0.5]];portConstraint=eastwest;" parent="KtQMih75mMSEq9B0olER-1" vertex="1">
          <mxGeometry y="26" width="140" height="26" as="geometry" />
        </mxCell>
        <mxCell id="KtQMih75mMSEq9B0olER-3" value="+ nTel: String" style="text;strokeColor=none;fillColor=none;align=left;verticalAlign=top;spacingLeft=4;spacingRight=4;overflow=hidden;rotatable=0;points=[[0,0.5],[1,0.5]];portConstraint=eastwest;" parent="KtQMih75mMSEq9B0olER-1" vertex="1">
          <mxGeometry y="52" width="140" height="26" as="geometry" />
        </mxCell>
        <mxCell id="KtQMih75mMSEq9B0olER-4" value="+ Indirizzo: String" style="text;strokeColor=none;fillColor=none;align=left;verticalAlign=top;spacingLeft=4;spacingRight=4;overflow=hidden;rotatable=0;points=[[0,0.5],[1,0.5]];portConstraint=eastwest;" parent="KtQMih75mMSEq9B0olER-1" vertex="1">
          <mxGeometry y="78" width="140" height="26" as="geometry" />
        </mxCell>
        <mxCell id="KtQMih75mMSEq9B0olER-38" style="edgeStyle=orthogonalEdgeStyle;rounded=0;orthogonalLoop=1;jettySize=auto;html=1;entryX=0.5;entryY=0;entryDx=0;entryDy=0;endArrow=diamond;endFill=1;" parent="1" source="KtQMih75mMSEq9B0olER-6" target="KtQMih75mMSEq9B0olER-10" edge="1">
          <mxGeometry relative="1" as="geometry" />
        </mxCell>
        <mxCell id="KtQMih75mMSEq9B0olER-39" value="1" style="edgeLabel;html=1;align=center;verticalAlign=middle;resizable=0;points=[];" parent="KtQMih75mMSEq9B0olER-38" vertex="1" connectable="0">
          <mxGeometry x="-0.7407" relative="1" as="geometry">
            <mxPoint x="-10" y="-2" as="offset" />
          </mxGeometry>
        </mxCell>
        <mxCell id="KtQMih75mMSEq9B0olER-40" value="1..*" style="edgeLabel;html=1;align=center;verticalAlign=middle;resizable=0;points=[];" parent="KtQMih75mMSEq9B0olER-38" vertex="1" connectable="0">
          <mxGeometry x="0.7778" relative="1" as="geometry">
            <mxPoint x="-20" as="offset" />
          </mxGeometry>
        </mxCell>
        <mxCell id="KtQMih75mMSEq9B0olER-6" value="Dipartimento" style="swimlane;fontStyle=0;childLayout=stackLayout;horizontal=1;startSize=26;fillColor=none;horizontalStack=0;resizeParent=1;resizeParentMax=0;resizeLast=0;collapsible=1;marginBottom=0;" parent="1" vertex="1">
          <mxGeometry x="28" y="204" width="140" height="78" as="geometry" />
        </mxCell>
        <mxCell id="KtQMih75mMSEq9B0olER-7" value="+ Nome: String" style="text;strokeColor=none;fillColor=none;align=left;verticalAlign=top;spacingLeft=4;spacingRight=4;overflow=hidden;rotatable=0;points=[[0,0.5],[1,0.5]];portConstraint=eastwest;" parent="KtQMih75mMSEq9B0olER-6" vertex="1">
          <mxGeometry y="26" width="140" height="26" as="geometry" />
        </mxCell>
        <mxCell id="KtQMih75mMSEq9B0olER-8" value="+ Corsi: Corso[]" style="text;strokeColor=none;fillColor=none;align=left;verticalAlign=top;spacingLeft=4;spacingRight=4;overflow=hidden;rotatable=0;points=[[0,0.5],[1,0.5]];portConstraint=eastwest;" parent="KtQMih75mMSEq9B0olER-6" vertex="1">
          <mxGeometry y="52" width="140" height="26" as="geometry" />
        </mxCell>
        <mxCell id="KtQMih75mMSEq9B0olER-46" style="edgeStyle=orthogonalEdgeStyle;rounded=0;orthogonalLoop=1;jettySize=auto;html=1;entryX=0.5;entryY=0;entryDx=0;entryDy=0;endArrow=none;endFill=0;" parent="1" source="KtQMih75mMSEq9B0olER-10" target="KtQMih75mMSEq9B0olER-41" edge="1">
          <mxGeometry relative="1" as="geometry" />
        </mxCell>
        <mxCell id="KtQMih75mMSEq9B0olER-47" value="1" style="edgeLabel;html=1;align=center;verticalAlign=middle;resizable=0;points=[];" parent="KtQMih75mMSEq9B0olER-46" vertex="1" connectable="0">
          <mxGeometry x="0.8364" relative="1" as="geometry">
            <mxPoint x="-10" y="-4" as="offset" />
          </mxGeometry>
        </mxCell>
        <mxCell id="KtQMih75mMSEq9B0olER-48" value="1..*" style="edgeLabel;html=1;align=center;verticalAlign=middle;resizable=0;points=[];" parent="KtQMih75mMSEq9B0olER-46" vertex="1" connectable="0">
          <mxGeometry x="-0.8765" y="-1" relative="1" as="geometry">
            <mxPoint x="-9" as="offset" />
          </mxGeometry>
        </mxCell>
        <mxCell id="KtQMih75mMSEq9B0olER-10" value="Corso" style="swimlane;fontStyle=0;childLayout=stackLayout;horizontal=1;startSize=26;fillColor=none;horizontalStack=0;resizeParent=1;resizeParentMax=0;resizeLast=0;collapsible=1;marginBottom=0;" parent="1" vertex="1">
          <mxGeometry x="28" y="479.5" width="140" height="208" as="geometry" />
        </mxCell>
        <mxCell id="KtQMih75mMSEq9B0olER-11" value="+ Doc : DocenteÂ " style="text;strokeColor=none;fillColor=none;align=left;verticalAlign=top;spacingLeft=4;spacingRight=4;overflow=hidden;rotatable=0;points=[[0,0.5],[1,0.5]];portConstraint=eastwest;" parent="KtQMih75mMSEq9B0olER-10" vertex="1">
          <mxGeometry y="26" width="140" height="26" as="geometry" />
        </mxCell>
        <mxCell id="KtQMih75mMSEq9B0olER-12" value="+ Nome: String" style="text;strokeColor=none;fillColor=none;align=left;verticalAlign=top;spacingLeft=4;spacingRight=4;overflow=hidden;rotatable=0;points=[[0,0.5],[1,0.5]];portConstraint=eastwest;" parent="KtQMih75mMSEq9B0olER-10" vertex="1">
          <mxGeometry y="52" width="140" height="26" as="geometry" />
        </mxCell>
        <mxCell id="KtQMih75mMSEq9B0olER-13" value="+ dataInizio: Date&#xa;" style="text;strokeColor=none;fillColor=none;align=left;verticalAlign=top;spacingLeft=4;spacingRight=4;overflow=hidden;rotatable=0;points=[[0,0.5],[1,0.5]];portConstraint=eastwest;" parent="KtQMih75mMSEq9B0olER-10" vertex="1">
          <mxGeometry y="78" width="140" height="26" as="geometry" />
        </mxCell>
        <mxCell id="KtQMih75mMSEq9B0olER-14" value="+ dataFine: Date&#xa;" style="text;strokeColor=none;fillColor=none;align=left;verticalAlign=top;spacingLeft=4;spacingRight=4;overflow=hidden;rotatable=0;points=[[0,0.5],[1,0.5]];portConstraint=eastwest;" parent="KtQMih75mMSEq9B0olER-10" vertex="1">
          <mxGeometry y="104" width="140" height="26" as="geometry" />
        </mxCell>
        <mxCell id="KtQMih75mMSEq9B0olER-15" value="+ descrizione: String" style="text;strokeColor=none;fillColor=none;align=left;verticalAlign=top;spacingLeft=4;spacingRight=4;overflow=hidden;rotatable=0;points=[[0,0.5],[1,0.5]];portConstraint=eastwest;" parent="KtQMih75mMSEq9B0olER-10" vertex="1">
          <mxGeometry y="130" width="140" height="26" as="geometry" />
        </mxCell>
        <mxCell id="KtQMih75mMSEq9B0olER-16" value="+ coDocente: Bololean" style="text;strokeColor=none;fillColor=none;align=left;verticalAlign=top;spacingLeft=4;spacingRight=4;overflow=hidden;rotatable=0;points=[[0,0.5],[1,0.5]];portConstraint=eastwest;" parent="KtQMih75mMSEq9B0olER-10" vertex="1">
          <mxGeometry y="156" width="140" height="26" as="geometry" />
        </mxCell>
        <mxCell id="KtQMih75mMSEq9B0olER-17" value="+ Esame: Esame" style="text;strokeColor=none;fillColor=none;align=left;verticalAlign=top;spacingLeft=4;spacingRight=4;overflow=hidden;rotatable=0;points=[[0,0.5],[1,0.5]];portConstraint=eastwest;" parent="KtQMih75mMSEq9B0olER-10" vertex="1">
          <mxGeometry y="182" width="140" height="26" as="geometry" />
        </mxCell>
        <mxCell id="KtQMih75mMSEq9B0olER-74" style="edgeStyle=orthogonalEdgeStyle;rounded=0;orthogonalLoop=1;jettySize=auto;html=1;endArrow=none;endFill=0;" parent="1" source="KtQMih75mMSEq9B0olER-18" target="KtQMih75mMSEq9B0olER-65" edge="1">
          <mxGeometry relative="1" as="geometry" />
        </mxCell>
        <mxCell id="KtQMih75mMSEq9B0olER-75" value="1" style="edgeLabel;html=1;align=center;verticalAlign=middle;resizable=0;points=[];" parent="KtQMih75mMSEq9B0olER-74" vertex="1" connectable="0">
          <mxGeometry x="-0.8788" y="1" relative="1" as="geometry">
            <mxPoint x="12" y="-3" as="offset" />
          </mxGeometry>
        </mxCell>
        <mxCell id="KtQMih75mMSEq9B0olER-76" value="*" style="edgeLabel;html=1;align=center;verticalAlign=middle;resizable=0;points=[];" parent="KtQMih75mMSEq9B0olER-74" vertex="1" connectable="0">
          <mxGeometry x="0.8561" relative="1" as="geometry">
            <mxPoint x="13" y="-4" as="offset" />
          </mxGeometry>
        </mxCell>
        <mxCell id="KtQMih75mMSEq9B0olER-18" value="Esame" style="swimlane;fontStyle=0;childLayout=stackLayout;horizontal=1;startSize=26;fillColor=none;horizontalStack=0;resizeParent=1;resizeParentMax=0;resizeLast=0;collapsible=1;marginBottom=0;" parent="1" vertex="1">
          <mxGeometry x="395" y="505.5" width="140" height="182" as="geometry" />
        </mxCell>
        <mxCell id="KtQMih75mMSEq9B0olER-19" value="+ Nome: String" style="text;strokeColor=none;fillColor=none;align=left;verticalAlign=top;spacingLeft=4;spacingRight=4;overflow=hidden;rotatable=0;points=[[0,0.5],[1,0.5]];portConstraint=eastwest;" parent="KtQMih75mMSEq9B0olER-18" vertex="1">
          <mxGeometry y="26" width="140" height="26" as="geometry" />
        </mxCell>
        <mxCell id="KtQMih75mMSEq9B0olER-20" value="+ Data: Date" style="text;strokeColor=none;fillColor=none;align=left;verticalAlign=top;spacingLeft=4;spacingRight=4;overflow=hidden;rotatable=0;points=[[0,0.5],[1,0.5]];portConstraint=eastwest;" parent="KtQMih75mMSEq9B0olER-18" vertex="1">
          <mxGeometry y="52" width="140" height="26" as="geometry" />
        </mxCell>
        <mxCell id="KtQMih75mMSEq9B0olER-21" value="+ Ora: Time" style="text;strokeColor=none;fillColor=none;align=left;verticalAlign=top;spacingLeft=4;spacingRight=4;overflow=hidden;rotatable=0;points=[[0,0.5],[1,0.5]];portConstraint=eastwest;" parent="KtQMih75mMSEq9B0olER-18" vertex="1">
          <mxGeometry y="78" width="140" height="26" as="geometry" />
        </mxCell>
        <mxCell id="KtQMih75mMSEq9B0olER-22" value="+ durata: String" style="text;strokeColor=none;fillColor=none;align=left;verticalAlign=top;spacingLeft=4;spacingRight=4;overflow=hidden;rotatable=0;points=[[0,0.5],[1,0.5]];portConstraint=eastwest;" parent="KtQMih75mMSEq9B0olER-18" vertex="1">
          <mxGeometry y="104" width="140" height="26" as="geometry" />
        </mxCell>
        <mxCell id="KtQMih75mMSEq9B0olER-23" value="+ aula: Aula" style="text;strokeColor=none;fillColor=none;align=left;verticalAlign=top;spacingLeft=4;spacingRight=4;overflow=hidden;rotatable=0;points=[[0,0.5],[1,0.5]];portConstraint=eastwest;" parent="KtQMih75mMSEq9B0olER-18" vertex="1">
          <mxGeometry y="130" width="140" height="26" as="geometry" />
        </mxCell>
        <mxCell id="KtQMih75mMSEq9B0olER-100" value="+ corso: Corso" style="text;strokeColor=none;fillColor=none;align=left;verticalAlign=top;spacingLeft=4;spacingRight=4;overflow=hidden;rotatable=0;points=[[0,0.5],[1,0.5]];portConstraint=eastwest;" parent="KtQMih75mMSEq9B0olER-18" vertex="1">
          <mxGeometry y="156" width="140" height="26" as="geometry" />
        </mxCell>
        <mxCell id="KtQMih75mMSEq9B0olER-24" value="Docente" style="swimlane;fontStyle=0;childLayout=stackLayout;horizontal=1;startSize=26;fillColor=none;horizontalStack=0;resizeParent=1;resizeParentMax=0;resizeLast=0;collapsible=1;marginBottom=0;" parent="1" vertex="1">
          <mxGeometry x="535" y="320" width="140" height="130" as="geometry">
            <mxRectangle x="535" y="320" width="80" height="26" as="alternateBounds" />
          </mxGeometry>
        </mxCell>
        <mxCell id="KtQMih75mMSEq9B0olER-130" value="+ Nome: String" style="text;strokeColor=none;fillColor=none;align=left;verticalAlign=top;spacingLeft=4;spacingRight=4;overflow=hidden;rotatable=0;points=[[0,0.5],[1,0.5]];portConstraint=eastwest;" parent="KtQMih75mMSEq9B0olER-24" vertex="1">
          <mxGeometry y="26" width="140" height="26" as="geometry" />
        </mxCell>
        <mxCell id="KtQMih75mMSEq9B0olER-131" value="+ Cognome: String" style="text;strokeColor=none;fillColor=none;align=left;verticalAlign=top;spacingLeft=4;spacingRight=4;overflow=hidden;rotatable=0;points=[[0,0.5],[1,0.5]];portConstraint=eastwest;" parent="KtQMih75mMSEq9B0olER-24" vertex="1">
          <mxGeometry y="52" width="140" height="26" as="geometry" />
        </mxCell>
        <mxCell id="KtQMih75mMSEq9B0olER-27" value="+ Email: String" style="text;strokeColor=none;fillColor=none;align=left;verticalAlign=top;spacingLeft=4;spacingRight=4;overflow=hidden;rotatable=0;points=[[0,0.5],[1,0.5]];portConstraint=eastwest;" parent="KtQMih75mMSEq9B0olER-24" vertex="1">
          <mxGeometry y="78" width="140" height="26" as="geometry" />
        </mxCell>
        <mxCell id="KtQMih75mMSEq9B0olER-28" value="+ corsiinsegnati: Corso[]" style="text;strokeColor=none;fillColor=none;align=left;verticalAlign=top;spacingLeft=4;spacingRight=4;overflow=hidden;rotatable=0;points=[[0,0.5],[1,0.5]];portConstraint=eastwest;" parent="KtQMih75mMSEq9B0olER-24" vertex="1">
          <mxGeometry y="104" width="140" height="26" as="geometry" />
        </mxCell>
        <mxCell id="KtQMih75mMSEq9B0olER-29" value="Studente" style="swimlane;fontStyle=0;childLayout=stackLayout;horizontal=1;startSize=26;fillColor=none;horizontalStack=0;resizeParent=1;resizeParentMax=0;resizeLast=0;collapsible=1;marginBottom=0;" parent="1" vertex="1">
          <mxGeometry x="28" y="939.5" width="140" height="104" as="geometry" />
        </mxCell>
        <mxCell id="KtQMih75mMSEq9B0olER-30" value="+ Nome: String" style="text;strokeColor=none;fillColor=none;align=left;verticalAlign=top;spacingLeft=4;spacingRight=4;overflow=hidden;rotatable=0;points=[[0,0.5],[1,0.5]];portConstraint=eastwest;" parent="KtQMih75mMSEq9B0olER-29" vertex="1">
          <mxGeometry y="26" width="140" height="26" as="geometry" />
        </mxCell>
        <mxCell id="KtQMih75mMSEq9B0olER-31" value="+ Cognome: String" style="text;strokeColor=none;fillColor=none;align=left;verticalAlign=top;spacingLeft=4;spacingRight=4;overflow=hidden;rotatable=0;points=[[0,0.5],[1,0.5]];portConstraint=eastwest;" parent="KtQMih75mMSEq9B0olER-29" vertex="1">
          <mxGeometry y="52" width="140" height="26" as="geometry" />
        </mxCell>
        <mxCell id="KtQMih75mMSEq9B0olER-32" value="+ Email: String" style="text;strokeColor=none;fillColor=none;align=left;verticalAlign=top;spacingLeft=4;spacingRight=4;overflow=hidden;rotatable=0;points=[[0,0.5],[1,0.5]];portConstraint=eastwest;" parent="KtQMih75mMSEq9B0olER-29" vertex="1">
          <mxGeometry y="78" width="140" height="26" as="geometry" />
        </mxCell>
        <mxCell id="KtQMih75mMSEq9B0olER-49" style="edgeStyle=orthogonalEdgeStyle;rounded=0;orthogonalLoop=1;jettySize=auto;html=1;entryX=0.5;entryY=0;entryDx=0;entryDy=0;endArrow=none;endFill=0;" parent="1" source="KtQMih75mMSEq9B0olER-41" target="KtQMih75mMSEq9B0olER-29" edge="1">
          <mxGeometry relative="1" as="geometry" />
        </mxCell>
        <mxCell id="KtQMih75mMSEq9B0olER-98" value="1" style="edgeLabel;html=1;align=center;verticalAlign=middle;resizable=0;points=[];" parent="KtQMih75mMSEq9B0olER-49" vertex="1" connectable="0">
          <mxGeometry x="0.7039" y="-1" relative="1" as="geometry">
            <mxPoint x="-7" as="offset" />
          </mxGeometry>
        </mxCell>
        <mxCell id="KtQMih75mMSEq9B0olER-99" value="1..*" style="edgeLabel;html=1;align=center;verticalAlign=middle;resizable=0;points=[];" parent="KtQMih75mMSEq9B0olER-49" vertex="1" connectable="0">
          <mxGeometry x="-0.6765" y="4" relative="1" as="geometry">
            <mxPoint x="-22" y="-4" as="offset" />
          </mxGeometry>
        </mxCell>
        <mxCell id="KtQMih75mMSEq9B0olER-41" value="Iscrizione" style="swimlane;fontStyle=0;childLayout=stackLayout;horizontal=1;startSize=26;fillColor=none;horizontalStack=0;resizeParent=1;resizeParentMax=0;resizeLast=0;collapsible=1;marginBottom=0;" parent="1" vertex="1">
          <mxGeometry x="28" y="759.5" width="140" height="78" as="geometry">
            <mxRectangle x="28" y="759.5" width="80" height="26" as="alternateBounds" />
          </mxGeometry>
        </mxCell>
        <mxCell id="KtQMih75mMSEq9B0olER-42" value="+ Studente: Studente" style="text;strokeColor=none;fillColor=none;align=left;verticalAlign=top;spacingLeft=4;spacingRight=4;overflow=hidden;rotatable=0;points=[[0,0.5],[1,0.5]];portConstraint=eastwest;" parent="KtQMih75mMSEq9B0olER-41" vertex="1">
          <mxGeometry y="26" width="140" height="26" as="geometry" />
        </mxCell>
        <mxCell id="KtQMih75mMSEq9B0olER-43" value="+ Corso: Corso" style="text;strokeColor=none;fillColor=none;align=left;verticalAlign=top;spacingLeft=4;spacingRight=4;overflow=hidden;rotatable=0;points=[[0,0.5],[1,0.5]];portConstraint=eastwest;" parent="KtQMih75mMSEq9B0olER-41" vertex="1">
          <mxGeometry y="52" width="140" height="26" as="geometry" />
        </mxCell>
        <mxCell id="KtQMih75mMSEq9B0olER-50" value="Amministratore del sito" style="swimlane;fontStyle=0;childLayout=stackLayout;horizontal=1;startSize=26;fillColor=none;horizontalStack=0;resizeParent=1;resizeParentMax=0;resizeLast=0;collapsible=1;marginBottom=0;" parent="1" vertex="1">
          <mxGeometry x="519" y="20" width="140" height="78" as="geometry" />
        </mxCell>
        <mxCell id="KtQMih75mMSEq9B0olER-126" value="+ Nome: String" style="text;strokeColor=none;fillColor=none;align=left;verticalAlign=top;spacingLeft=4;spacingRight=4;overflow=hidden;rotatable=0;points=[[0,0.5],[1,0.5]];portConstraint=eastwest;" parent="KtQMih75mMSEq9B0olER-50" vertex="1">
          <mxGeometry y="26" width="140" height="26" as="geometry" />
        </mxCell>
        <mxCell id="KtQMih75mMSEq9B0olER-127" value="+ Cognome: String" style="text;strokeColor=none;fillColor=none;align=left;verticalAlign=top;spacingLeft=4;spacingRight=4;overflow=hidden;rotatable=0;points=[[0,0.5],[1,0.5]];portConstraint=eastwest;" parent="KtQMih75mMSEq9B0olER-50" vertex="1">
          <mxGeometry y="52" width="140" height="26" as="geometry" />
        </mxCell>
        <mxCell id="KtQMih75mMSEq9B0olER-58" value="Segreteria" style="swimlane;fontStyle=0;childLayout=stackLayout;horizontal=1;startSize=26;fillColor=none;horizontalStack=0;resizeParent=1;resizeParentMax=0;resizeLast=0;collapsible=1;marginBottom=0;" parent="1" vertex="1">
          <mxGeometry x="519" y="164" width="140" height="78" as="geometry">
            <mxRectangle x="519" y="164" width="90" height="26" as="alternateBounds" />
          </mxGeometry>
        </mxCell>
        <mxCell id="KtQMih75mMSEq9B0olER-128" value="+ Nome: String" style="text;strokeColor=none;fillColor=none;align=left;verticalAlign=top;spacingLeft=4;spacingRight=4;overflow=hidden;rotatable=0;points=[[0,0.5],[1,0.5]];portConstraint=eastwest;" parent="KtQMih75mMSEq9B0olER-58" vertex="1">
          <mxGeometry y="26" width="140" height="26" as="geometry" />
        </mxCell>
        <mxCell id="KtQMih75mMSEq9B0olER-129" value="+ Cognome: String" style="text;strokeColor=none;fillColor=none;align=left;verticalAlign=top;spacingLeft=4;spacingRight=4;overflow=hidden;rotatable=0;points=[[0,0.5],[1,0.5]];portConstraint=eastwest;" parent="KtQMih75mMSEq9B0olER-58" vertex="1">
          <mxGeometry y="52" width="140" height="26" as="geometry" />
        </mxCell>
        <mxCell id="KtQMih75mMSEq9B0olER-65" value="Registrazione" style="swimlane;fontStyle=0;childLayout=stackLayout;horizontal=1;startSize=26;fillColor=none;horizontalStack=0;resizeParent=1;resizeParentMax=0;resizeLast=0;collapsible=1;marginBottom=0;" parent="1" vertex="1">
          <mxGeometry x="395" y="939.5" width="140" height="130" as="geometry" />
        </mxCell>
        <mxCell id="KtQMih75mMSEq9B0olER-66" value="+ Data: Date" style="text;strokeColor=none;fillColor=none;align=left;verticalAlign=top;spacingLeft=4;spacingRight=4;overflow=hidden;rotatable=0;points=[[0,0.5],[1,0.5]];portConstraint=eastwest;" parent="KtQMih75mMSEq9B0olER-65" vertex="1">
          <mxGeometry y="26" width="140" height="26" as="geometry" />
        </mxCell>
        <mxCell id="KtQMih75mMSEq9B0olER-67" value="+ Risultato: int" style="text;strokeColor=none;fillColor=none;align=left;verticalAlign=top;spacingLeft=4;spacingRight=4;overflow=hidden;rotatable=0;points=[[0,0.5],[1,0.5]];portConstraint=eastwest;" parent="KtQMih75mMSEq9B0olER-65" vertex="1">
          <mxGeometry y="52" width="140" height="26" as="geometry" />
        </mxCell>
        <mxCell id="KtQMih75mMSEq9B0olER-96" value="+ Esame: Esame" style="text;strokeColor=none;fillColor=none;align=left;verticalAlign=top;spacingLeft=4;spacingRight=4;overflow=hidden;rotatable=0;points=[[0,0.5],[1,0.5]];portConstraint=eastwest;" parent="KtQMih75mMSEq9B0olER-65" vertex="1">
          <mxGeometry y="78" width="140" height="26" as="geometry" />
        </mxCell>
        <mxCell id="KtQMih75mMSEq9B0olER-97" value="+ Studente: Studente" style="text;strokeColor=none;fillColor=none;align=left;verticalAlign=top;spacingLeft=4;spacingRight=4;overflow=hidden;rotatable=0;points=[[0,0.5],[1,0.5]];portConstraint=eastwest;" parent="KtQMih75mMSEq9B0olER-65" vertex="1">
          <mxGeometry y="104" width="140" height="26" as="geometry" />
        </mxCell>
        <mxCell id="KtQMih75mMSEq9B0olER-71" style="edgeStyle=orthogonalEdgeStyle;rounded=0;orthogonalLoop=1;jettySize=auto;html=1;entryX=0;entryY=0.5;entryDx=0;entryDy=0;endArrow=none;endFill=0;" parent="1" source="KtQMih75mMSEq9B0olER-31" target="KtQMih75mMSEq9B0olER-67" edge="1">
          <mxGeometry relative="1" as="geometry" />
        </mxCell>
        <mxCell id="KtQMih75mMSEq9B0olER-72" value="1" style="edgeLabel;html=1;align=center;verticalAlign=middle;resizable=0;points=[];" parent="KtQMih75mMSEq9B0olER-71" vertex="1" connectable="0">
          <mxGeometry x="-0.8899" y="2" relative="1" as="geometry">
            <mxPoint y="-11" as="offset" />
          </mxGeometry>
        </mxCell>
        <mxCell id="KtQMih75mMSEq9B0olER-73" value="*" style="edgeLabel;html=1;align=center;verticalAlign=middle;resizable=0;points=[];" parent="KtQMih75mMSEq9B0olER-71" vertex="1" connectable="0">
          <mxGeometry x="0.8869" relative="1" as="geometry">
            <mxPoint x="-4" y="-15" as="offset" />
          </mxGeometry>
        </mxCell>
        <mxCell id="KtQMih75mMSEq9B0olER-77" style="edgeStyle=orthogonalEdgeStyle;rounded=0;orthogonalLoop=1;jettySize=auto;html=1;entryX=1;entryY=0.5;entryDx=0;entryDy=0;endArrow=none;endFill=0;" parent="1" source="KtQMih75mMSEq9B0olER-21" target="KtQMih75mMSEq9B0olER-14" edge="1">
          <mxGeometry relative="1" as="geometry" />
        </mxCell>
        <mxCell id="KtQMih75mMSEq9B0olER-78" value="1" style="edgeLabel;html=1;align=center;verticalAlign=middle;resizable=0;points=[];" parent="KtQMih75mMSEq9B0olER-77" vertex="1" connectable="0">
          <mxGeometry x="0.9046" y="-3" relative="1" as="geometry">
            <mxPoint y="-10" as="offset" />
          </mxGeometry>
        </mxCell>
        <mxCell id="KtQMih75mMSEq9B0olER-79" value="1" style="edgeLabel;html=1;align=center;verticalAlign=middle;resizable=0;points=[];" parent="KtQMih75mMSEq9B0olER-77" vertex="1" connectable="0">
          <mxGeometry x="-0.8722" relative="1" as="geometry">
            <mxPoint y="-7" as="offset" />
          </mxGeometry>
        </mxCell>
        <mxCell id="KtQMih75mMSEq9B0olER-80" style="edgeStyle=orthogonalEdgeStyle;rounded=0;orthogonalLoop=1;jettySize=auto;html=1;entryX=0.75;entryY=0;entryDx=0;entryDy=0;endArrow=none;endFill=0;" parent="1" target="KtQMih75mMSEq9B0olER-10" edge="1">
          <mxGeometry relative="1" as="geometry">
            <mxPoint x="534.9999999999998" y="359.0000000000001" as="sourcePoint" />
          </mxGeometry>
        </mxCell>
        <mxCell id="KtQMih75mMSEq9B0olER-82" value="Docenza" style="edgeLabel;html=1;align=center;verticalAlign=middle;resizable=0;points=[];" parent="KtQMih75mMSEq9B0olER-80" vertex="1" connectable="0">
          <mxGeometry x="-0.1981" y="3" relative="1" as="geometry">
            <mxPoint y="-12" as="offset" />
          </mxGeometry>
        </mxCell>
        <mxCell id="KtQMih75mMSEq9B0olER-87" value="*" style="edgeLabel;html=1;align=center;verticalAlign=middle;resizable=0;points=[];" parent="KtQMih75mMSEq9B0olER-80" vertex="1" connectable="0">
          <mxGeometry x="0.9158" y="2" relative="1" as="geometry">
            <mxPoint x="-7" y="2" as="offset" />
          </mxGeometry>
        </mxCell>
        <mxCell id="KtQMih75mMSEq9B0olER-81" style="edgeStyle=orthogonalEdgeStyle;rounded=0;orthogonalLoop=1;jettySize=auto;html=1;entryX=1;entryY=0;entryDx=0;entryDy=0;endArrow=none;endFill=0;" parent="1" target="KtQMih75mMSEq9B0olER-10" edge="1">
          <mxGeometry relative="1" as="geometry">
            <mxPoint x="534.9999999999998" y="359.0000000000001" as="sourcePoint" />
            <Array as="points">
              <mxPoint x="535" y="390" />
              <mxPoint x="168" y="390" />
            </Array>
          </mxGeometry>
        </mxCell>
        <mxCell id="KtQMih75mMSEq9B0olER-83" value="Codocenza" style="edgeLabel;html=1;align=center;verticalAlign=middle;resizable=0;points=[];" parent="KtQMih75mMSEq9B0olER-81" vertex="1" connectable="0">
          <mxGeometry x="-0.0776" relative="1" as="geometry">
            <mxPoint y="-13" as="offset" />
          </mxGeometry>
        </mxCell>
        <mxCell id="KtQMih75mMSEq9B0olER-84" value="1" style="edgeLabel;html=1;align=center;verticalAlign=middle;resizable=0;points=[];" parent="KtQMih75mMSEq9B0olER-81" vertex="1" connectable="0">
          <mxGeometry x="-0.9227" relative="1" as="geometry">
            <mxPoint x="-15" y="-35" as="offset" />
          </mxGeometry>
        </mxCell>
        <mxCell id="KtQMih75mMSEq9B0olER-85" value="*" style="edgeLabel;html=1;align=center;verticalAlign=middle;resizable=0;points=[];" parent="KtQMih75mMSEq9B0olER-81" vertex="1" connectable="0">
          <mxGeometry x="0.9299" y="-2" relative="1" as="geometry">
            <mxPoint x="-8" as="offset" />
          </mxGeometry>
        </mxCell>
        <mxCell id="KtQMih75mMSEq9B0olER-86" value="0..1" style="edgeLabel;html=1;align=center;verticalAlign=middle;resizable=0;points=[];" parent="KtQMih75mMSEq9B0olER-81" vertex="1" connectable="0">
          <mxGeometry x="-0.9263" y="-1" relative="1" as="geometry">
            <mxPoint x="-14" y="3" as="offset" />
          </mxGeometry>
        </mxCell>
        <mxCell id="KtQMih75mMSEq9B0olER-88" value="Aula" style="swimlane;fontStyle=0;childLayout=stackLayout;horizontal=1;startSize=26;fillColor=none;horizontalStack=0;resizeParent=1;resizeParentMax=0;resizeLast=0;collapsible=1;marginBottom=0;" parent="1" vertex="1">
          <mxGeometry x="659" y="505.5" width="140" height="104" as="geometry" />
        </mxCell>
        <mxCell id="KtQMih75mMSEq9B0olER-89" value="+ Indirizzo: String" style="text;strokeColor=none;fillColor=none;align=left;verticalAlign=top;spacingLeft=4;spacingRight=4;overflow=hidden;rotatable=0;points=[[0,0.5],[1,0.5]];portConstraint=eastwest;" parent="KtQMih75mMSEq9B0olER-88" vertex="1">
          <mxGeometry y="26" width="140" height="26" as="geometry" />
        </mxCell>
        <mxCell id="KtQMih75mMSEq9B0olER-90" value="+ nAula: int" style="text;strokeColor=none;fillColor=none;align=left;verticalAlign=top;spacingLeft=4;spacingRight=4;overflow=hidden;rotatable=0;points=[[0,0.5],[1,0.5]];portConstraint=eastwest;" parent="KtQMih75mMSEq9B0olER-88" vertex="1">
          <mxGeometry y="52" width="140" height="26" as="geometry" />
        </mxCell>
        <mxCell id="KtQMih75mMSEq9B0olER-91" value="+ NomeSede: String" style="text;strokeColor=none;fillColor=none;align=left;verticalAlign=top;spacingLeft=4;spacingRight=4;overflow=hidden;rotatable=0;points=[[0,0.5],[1,0.5]];portConstraint=eastwest;" parent="KtQMih75mMSEq9B0olER-88" vertex="1">
          <mxGeometry y="78" width="140" height="26" as="geometry" />
        </mxCell>
        <mxCell id="KtQMih75mMSEq9B0olER-92" style="edgeStyle=orthogonalEdgeStyle;rounded=0;orthogonalLoop=1;jettySize=auto;html=1;entryX=1;entryY=0.5;entryDx=0;entryDy=0;endArrow=none;endFill=0;" parent="1" source="KtQMih75mMSEq9B0olER-90" target="KtQMih75mMSEq9B0olER-20" edge="1">
          <mxGeometry relative="1" as="geometry" />
        </mxCell>
        <mxCell id="KtQMih75mMSEq9B0olER-93" value="*" style="edgeLabel;html=1;align=center;verticalAlign=middle;resizable=0;points=[];" parent="KtQMih75mMSEq9B0olER-92" vertex="1" connectable="0">
          <mxGeometry x="0.8065" y="1" relative="1" as="geometry">
            <mxPoint y="-14" as="offset" />
          </mxGeometry>
        </mxCell>
        <mxCell id="KtQMih75mMSEq9B0olER-94" value="1" style="edgeLabel;html=1;align=center;verticalAlign=middle;resizable=0;points=[];" parent="KtQMih75mMSEq9B0olER-92" vertex="1" connectable="0">
          <mxGeometry x="-0.8271" y="-1" relative="1" as="geometry">
            <mxPoint y="-9" as="offset" />
          </mxGeometry>
        </mxCell>
        <mxCell id="KtQMih75mMSEq9B0olER-101" value="Modello generale" style="text;html=1;strokeColor=none;fillColor=none;align=center;verticalAlign=middle;whiteSpace=wrap;rounded=0;" parent="1" vertex="1">
          <mxGeometry x="1560" y="20" width="60" height="30" as="geometry" />
        </mxCell>
        <mxCell id="KtQMih75mMSEq9B0olER-103" value="Modello dettagliato" style="text;html=1;strokeColor=none;fillColor=none;align=center;verticalAlign=middle;whiteSpace=wrap;rounded=0;" parent="1" vertex="1">
          <mxGeometry x="710" y="20" width="60" height="30" as="geometry" />
        </mxCell>
        <mxCell id="KtQMih75mMSEq9B0olER-106" value="Utente" style="swimlane;fontStyle=0;childLayout=stackLayout;horizontal=1;startSize=26;fillColor=none;horizontalStack=0;resizeParent=1;resizeParentMax=0;resizeLast=0;collapsible=1;marginBottom=0;" parent="1" vertex="1">
          <mxGeometry x="290" y="40" width="140" height="78" as="geometry">
            <mxRectangle x="290" y="40" width="90" height="26" as="alternateBounds" />
          </mxGeometry>
        </mxCell>
        <mxCell id="KtQMih75mMSEq9B0olER-107" value="+ Nome: String" style="text;strokeColor=none;fillColor=none;align=left;verticalAlign=top;spacingLeft=4;spacingRight=4;overflow=hidden;rotatable=0;points=[[0,0.5],[1,0.5]];portConstraint=eastwest;" parent="KtQMih75mMSEq9B0olER-106" vertex="1">
          <mxGeometry y="26" width="140" height="26" as="geometry" />
        </mxCell>
        <mxCell id="KtQMih75mMSEq9B0olER-108" value="+ Cognome: String" style="text;strokeColor=none;fillColor=none;align=left;verticalAlign=top;spacingLeft=4;spacingRight=4;overflow=hidden;rotatable=0;points=[[0,0.5],[1,0.5]];portConstraint=eastwest;" parent="KtQMih75mMSEq9B0olER-106" vertex="1">
          <mxGeometry y="52" width="140" height="26" as="geometry" />
        </mxCell>
        <mxCell id="KtQMih75mMSEq9B0olER-111" style="edgeStyle=orthogonalEdgeStyle;rounded=0;orthogonalLoop=1;jettySize=auto;html=1;entryX=0;entryY=0.5;entryDx=0;entryDy=0;endArrow=none;endFill=0;exitX=1;exitY=0.5;exitDx=0;exitDy=0;" parent="1" source="KtQMih75mMSEq9B0olER-3" target="KtQMih75mMSEq9B0olER-108" edge="1">
          <mxGeometry relative="1" as="geometry" />
        </mxCell>
        <mxCell id="KtQMih75mMSEq9B0olER-113" value="1" style="edgeLabel;html=1;align=center;verticalAlign=middle;resizable=0;points=[];" parent="KtQMih75mMSEq9B0olER-111" vertex="1" connectable="0">
          <mxGeometry x="-0.922" relative="1" as="geometry">
            <mxPoint y="-9" as="offset" />
          </mxGeometry>
        </mxCell>
        <mxCell id="KtQMih75mMSEq9B0olER-119" style="edgeStyle=orthogonalEdgeStyle;rounded=0;orthogonalLoop=1;jettySize=auto;html=1;entryX=0;entryY=0.5;entryDx=0;entryDy=0;endArrow=none;endFill=0;startArrow=block;startFill=0;" parent="1" source="KtQMih75mMSEq9B0olER-108" target="KtQMih75mMSEq9B0olER-50" edge="1">
          <mxGeometry relative="1" as="geometry">
            <Array as="points">
              <mxPoint x="480" y="105" />
              <mxPoint x="480" y="46" />
            </Array>
          </mxGeometry>
        </mxCell>
        <mxCell id="KtQMih75mMSEq9B0olER-120" style="edgeStyle=orthogonalEdgeStyle;rounded=0;orthogonalLoop=1;jettySize=auto;html=1;entryX=0;entryY=0.5;entryDx=0;entryDy=0;endArrow=none;endFill=0;startArrow=block;startFill=0;" parent="1" source="KtQMih75mMSEq9B0olER-108" target="KtQMih75mMSEq9B0olER-58" edge="1">
          <mxGeometry relative="1" as="geometry">
            <Array as="points">
              <mxPoint x="480" y="105" />
              <mxPoint x="480" y="190" />
            </Array>
          </mxGeometry>
        </mxCell>
        <mxCell id="KtQMih75mMSEq9B0olER-125" style="edgeStyle=orthogonalEdgeStyle;rounded=0;orthogonalLoop=1;jettySize=auto;html=1;entryX=0.5;entryY=0;entryDx=0;entryDy=0;startArrow=block;startFill=0;endArrow=none;endFill=0;" parent="1" source="KtQMih75mMSEq9B0olER-108" target="KtQMih75mMSEq9B0olER-24" edge="1">
          <mxGeometry relative="1" as="geometry">
            <Array as="points">
              <mxPoint x="480" y="105" />
              <mxPoint x="480" y="270" />
              <mxPoint x="605" y="270" />
            </Array>
          </mxGeometry>
        </mxCell>
        <mxCell id="EBEP_tyrOvzuEib2Y0mV-1" value="1..*" style="text;html=1;align=center;verticalAlign=middle;resizable=0;points=[];autosize=1;strokeColor=none;fillColor=none;" parent="1" vertex="1">
          <mxGeometry x="265" y="80" width="30" height="20" as="geometry" />
        </mxCell>
      </root>
    </mxGraphModel>
  </diagram>
</mxfile>
